<?xml version="1.0" encoding="utf-8"?>
<!-- Generator: Adobe Illustrator 24.1.3, SVG Export Plug-In . SVG Version: 6.00 Build 0)  -->
<svg version="1.1" id="Capa_1" xmlns="http://www.w3.org/2000/svg" xmlns:xlink="http://www.w3.org/1999/xlink" x="0px" y="0px"
	 viewBox="0 0 384 225.59" style="enable-background:new 0 0 384 225.59;" xml:space="preserve">
<style type="text/css">
	.st0{fill:#FFFFFF;}
</style>
<path class="st0" d="M368,128.79H16c-8.83,0-16-7.17-16-16s7.17-16,16-16h352c8.83,0,16,7.17,16,16S376.83,128.79,368,128.79z"/>
<path class="st0" d="M368,32H16C7.17,32,0,24.83,0,16S7.17,0,16,0h352c8.83,0,16,7.17,16,16S376.83,32,368,32z"/>
<path class="st0" d="M368,225.59H16c-8.83,0-16-7.17-16-16s7.17-16,16-16h352c8.83,0,16,7.17,16,16S376.83,225.59,368,225.59z"/>
</svg>
